<svg width="40" height="40" viewBox="0 0 40 40" xmlns="http://www.w3.org/2000/svg">
<path fill-rule="evenodd" clip-rule="evenodd" d="M27.5599 15.8924C27.0996 15.4322 26.3534 15.4322 25.8932 15.8924L18.3932 23.3924L14.2265 19.2258C13.7663 18.7655 13.0201 18.7655 12.5599 19.2258C12.0996 19.686 12.0996 20.4322 12.5599 20.8925L17.5557 25.8883C17.5571 25.8897 17.5584 25.8911 17.5598 25.8924C17.6201 25.9527 17.6852 26.005 17.7539 26.0495C18.2105 26.3448 18.8265 26.2925 19.2266 25.8925C19.2296 25.8895 19.2325 25.8865 19.2355 25.8835L27.5599 17.5591C28.0201 17.0988 28.0201 16.3526 27.5599 15.8924Z" />
</svg>
