<svg width="16" height="16" viewBox="0 0 16 16" fill="none" xmlns="http://www.w3.org/2000/svg">
<path fill-rule="evenodd" clip-rule="evenodd" d="M6 5C5.72386 4.72386 5.27614 4.72386 5 5C4.72386 5.27614 4.72386 5.72386 5 6L7 8L5 10C4.72386 10.2761 4.72386 10.7239 5 11C5.27614 11.2761 5.72386 11.2761 6 11L8 9L10 11C10.2761 11.2761 10.7239 11.2761 11 11C11.2761 10.7239 11.2761 10.2761 11 10L9 8L11 6C11.2761 5.72386 11.2761 5.27614 11 5C10.7239 4.72386 10.2761 4.72386 10 5L8 7L6 5Z" fill="white"/>
</svg>
